<svg xmlns="http://www.w3.org/2000/svg" viewBox="0 0 16 12.5">
  <defs/>
  <g id="fuse-symbol--on-dark--16">
    <path d="M6.74948 6.9315c.17252.16324.33158.314.46468.43083.109.09692.237.21611.38028.34967l.02041.019c.96276.89783 2.5706 2.39669 4.005 2.39669a3.88256 3.88256 0 0 0 0-7.76512.34434.34434 0 0 0 0 .68867 3.19165 3.19165 0 0 1 2.72224 1.52716 2.2941 2.2941 0 0 1 .16231 2.13235 1.66136 1.66136 0 0 1-1.33608.94 2.95311 2.95311 0 0 1-.75128.00371c-1.09354-.13588-2.34382-1.318-3.17117-2.09988-.18411-.17484-.33251-.314-.46005-.42712-.11408-.1011-.2495-.22724-.40114-.36915-.9609-.896-2.56874-2.39576-4.00452-2.39576a3.88256 3.88256 0 0 0 0 7.76512.34434.34434 0 0 0 .00067-.68867h-.00067A3.18478 3.18478 0 0 1 2.796 9.01747a3.09435 3.09435 0 0 1-1.44785-1.8272A1.77675 1.77675 0 0 1 2.13 5.0774a2.1371 2.1371 0 0 1 .58478-.20823 2.67288 2.67288 0 0 1 .53657-.05426 2.73716 2.73716 0 0 1 .33112.0204C4.67464 4.9712 5.92353 6.151 6.74948 6.9315zm-4.843-2.51773L1.6913 4.513l.14283-.18875a3.17009 3.17009 0 0 1 2.546-1.273c1.165 0 2.64851 1.38432 3.53474 2.21119l.04267.03988c.13959.12985.26434.24579.37239.34086.12475.11084.26806.24579.44289.41136.89366.845 2.24272 2.11982 3.56072 2.28353a3.27414 3.27414 0 0 0 1.76-.262l.21518-.09924-.14283.18875a3.17053 3.17053 0 0 1-2.546 1.27347c-1.16495 0-2.64851-1.38432-3.53474-2.21119l-.019-.01809c-.14886-.1382-.282-.26248-.396-.36312-.12521-.11084-.26851-.24625-.44334-.41181-.89518-.84545-2.24331-2.11939-3.56038-2.2831a3.269 3.269 0 0 0-1.75995.26203z" class="cls-1"/>
    <path d="M11.611 11.30657c-1.89862 0-3.65718-1.63891-4.82028-2.72364-.13772-.12893-.26153-.24393-.36679-.33715-.13959-.12382-.30375-.27872-.4888-.45309a6.66582 6.66582 0 0 0-2.508-1.78731 1.28228 1.28228 0 0 0-.94422.22352.40038.40038 0 0 0-.14793.34133.32861.32861 0 0 0 .17112.26666c.11269.06538.22492.01669.35384-.03942.045-.01948.09-.0385.13449-.05287a.89589.89589 0 0 1 .27315-.04221.8578.8578 0 0 1 .3251.06261 1.76779 1.76779 0 0 1 .43268.28521c.04035.03246.08069.06539.12151.09646a16.459 16.459 0 0 1 1.31521 1.1464c.17576.166.35755.33761.50549.46793.09321.08255.20081.18318.33159.30515l.03478.03246c1.23684 1.15339 3.10624 2.89662 5.27706 2.89662a.34434.34434 0 0 0 .00068-.68868H11.611zM13.4962 5.66266c-.11316-.06446-.22539-.01623-.35431.03988-.045.01948-.08951.0385-.134.05287a.87442.87442 0 0 1-.59824-.0204 1.77258 1.77258 0 0 1-.43176-.28428c-.04081-.03293-.08115-.06586-.12289-.09739a16.65153 16.65153 0 0 1-1.31475-1.1464c-.17577-.166-.35756-.33761-.50549-.46793-.10157-.09-.22029-.20127-.36637-.33808C8.43059 2.24756 6.56119.50477 4.39083.50477a.34434.34434 0 0 0 0 .68868c1.90047 0 3.65764 1.63891 4.82027 2.72317.1382.12939.262.24394.3673.33762.13959.12382.30376.27871.4888.45309a6.65162 6.65162 0 0 0 2.508 1.78731 1.28758 1.28758 0 0 0 .9442-.22352.40036.40036 0 0 0 .14794-.34133.328.328 0 0 0-.17114-.26713z" class="cls-1"/>
  </g>
</svg>
