<svg xmlns="http://www.w3.org/2000/svg" viewBox="0 0 32 25">
  <defs/>
  <g id="fuse-symbol--on-dark--32">
    <path d="M13.499 13.863c.345.32648.66317.62792.92937.86165.218.19385.47395.43222.76056.69935l.04081.038c1.92551 1.79566 5.14119 4.79338 8.01 4.79338a7.76513 7.76513 0 0 0 0-15.53026.68868.68868 0 0 0 0 1.37736 6.38329 6.38329 0 0 1 5.44444 3.05432 4.58826 4.58826 0 0 1 .32463 4.2647 3.32277 3.32277 0 0 1-2.67216 1.88006 5.90629 5.90629 0 0 1-1.50257.00742c-2.18708-.27176-4.68765-2.636-6.34234-4.19977-.36822-.34967-.665-.62792-.92009-.85423-.22817-.2022-.499-.45448-.8023-.7383-1.92179-1.79195-5.13747-4.79153-8.009-4.79153a7.76513 7.76513 0 0 0 0 15.53026.68868.68868 0 0 0 .00135-1.37736h-.00139a6.36951 6.36951 0 0 1-3.16837-.84311 6.1887 6.1887 0 0 1-2.89569-3.65439A3.55349 3.55349 0 0 1 4.26 10.1548a4.27356 4.27356 0 0 1 1.16958-.41646 5.34567 5.34567 0 0 1 1.07313-.10852 5.47015 5.47015 0 0 1 .66224.04081C9.34927 9.9424 11.84706 12.302 13.499 13.863zM3.813 8.82753l-.43041.19847.28568-.37749a6.34009 6.34009 0 0 1 5.092-2.546c2.32991 0 5.297 2.76862 7.0695 4.42237l.08533.07977c.27918.2597.52868.49158.74479.68172.2495.22167.5361.49158.88577.8227 1.78732 1.68993 4.48545 4.23965 7.12144 4.56707a6.5483 6.5483 0 0 0 3.5199-.524l.43036-.19848-.28567.37749a6.341 6.341 0 0 1-5.092 2.54694c-2.32991 0-5.297-2.76862-7.0695-4.42237l-.038-.03617c-.29774-.27641-.56393-.525-.7921-.72625-.25043-.22167-.537-.4925-.8867-.82362-1.79012-1.6909-4.48639-4.23877-7.12053-4.5662a6.53814 6.53814 0 0 0-3.51986.52405z" class="cls-1"/>
    <path d="M23.22206 22.61314c-3.79723 0-7.31435-3.27783-9.64055-5.44728-.27548-.25785-.52312-.48787-.73365-.6743-.27918-.24764-.6075-.55743-.9776-.90618-1.77711-1.67972-3.762-3.41881-5.016-3.57463a2.56461 2.56461 0 0 0-1.88843.44705.80076.80076 0 0 0-.29588.68265.65724.65724 0 0 0 .34224.53332c.22539.13078.44985.03339.7077-.07884.09-.039.17994-.077.269-.10574a1.79167 1.79167 0 0 1 .5463-.0844 1.71514 1.71514 0 0 1 .65018.12521 3.53563 3.53563 0 0 1 .86537.57042c.08069.06492.16139.13078.243.19292a32.91854 32.91854 0 0 1 2.63042 2.2928c.35153.332.71511.67523 1.011.93586.18643.16509.40161.36636.66317.6103l.06956.06492c2.47368 2.30673 6.21247 5.79324 10.55416 5.79324a.68868.68868 0 1 0 .00134-1.37736h-.00134zM26.9924 11.32532c-.22632-.12892-.45078-.03246-.70862.07977-.09.039-.179.077-.268.10574a1.74887 1.74887 0 0 1-1.19654-.04083 3.545 3.545 0 0 1-.86352-.56857c-.08161-.06585-.16231-.1317-.24579-.19477a33.30677 33.30677 0 0 1-2.62949-2.2928c-.35153-.33205-.71511-.67523-1.011-.93586-.20313-.17994-.44057-.40254-.73273-.67616-2.47552-2.30671-6.21432-5.7923-10.55505-5.7923a.68868.68868 0 0 0 0 1.37736c3.80093 0 7.31528 3.27782 9.64055 5.44634.2764.25878.524.48788.73459.67523.27918.24765.60752.55744.97759.90618 1.77524 1.67972 3.76013 3.41881 5.016 3.57463a2.57525 2.57525 0 0 0 1.88841-.44705.80071.80071 0 0 0 .29587-.68265.65591.65591 0 0 0-.34227-.53426z" class="cls-1"/>
  </g>
</svg>
