<svg xmlns="http://www.w3.org/2000/svg" viewBox="0 0 48 37.5">
  <defs/>
  <g id="fuse-symbol--on-light--48">
    <path d="M35.01079 36.42086c-6.67266 0-12.39089-5.33093-16.17446-8.85851-.44364-.41487-.80456-.7518-1.11211-1.024-.44125-.38969-.96043-.8789-1.54137-1.42806a50.0126 50.0126 0 0 0-3.98564-3.47429c-.76676-.58489-1.77187-1.476-2.81052-1.37-.783.07992-1.33.905-2.16009.44259a1.29962 1.29962 0 0 1-.09434-2.14837 4.08039 4.08039 0 0 1 3.008-.71852c1.961.2446 5.00779 2.91007 7.72961 5.48441.55816.52758 1.05816.9976 1.48262 1.3741.32134.28537.69784.63549 1.1193 1.02878 3.54137 3.30216 8.83334 8.23621 14.539 8.23621a1.22782 1.22782 0 1 1 0 2.45563zM8.89928 20.23381l-.0036.006.0036-.006zM38.47237 19.69872a5.61821 5.61821 0 0 1-.61266-.04165c-1.95923-.2434-5.00659-2.90887-7.72961-5.48441-.55756-.52638-1.057-.9964-1.482-1.3729-.29436-.26019-.63429-.57794-1.01379-.93046l-.14331-.1343c-3.5036-3.26619-8.79557-8.20024-14.5012-8.20024a1.22782 1.22782 0 1 1 0-2.45563c6.67326 0 12.39089 5.33093 16.17446 8.85851l.14448.13429c.36151.33813.68645.64029.96643.88849.44185.39089.96163.8801 1.54137 1.42686a49.98035 49.98035 0 0 0 3.988 3.47663c.84856.64723 2.13064 1.79411 3.28825 1.23093a4.47285 4.47285 0 0 1 .77859-.418 1.22461 1.22461 0 0 1 1.468 1.575c-.38153 1.14059-1.73166 1.46235-2.86701 1.44688zm.64873-2.46611l-.021.036h.0012c.00601-.01202.01321-.02401.0198-.036z" class="cls-1"/>
    <path d="M35.01079 6.76019a1.22782 1.22782 0 0 0 0 2.45564 9.52441 9.52441 0 0 1 4.71212 1.24908 9.62845 9.62845 0 0 1 3.414 3.31c2.10547 3.43078 1.0785 8.48359-3.44087 9.07151a8.9035 8.9035 0 0 1-2.238.01086c-3.26678-.40527-7.04436-3.976-9.54376-6.33932-.52878-.5-1.0018-.94605-1.40408-1.30216-.34772-.307-.75719-.68945-1.217-1.11871-2.94185-2.7446-7.86631-7.33693-12.30336-7.33693a11.98981 11.98981 0 1 0 0 23.97962 1.22782 1.22782 0 0 0 0-2.45564 9.52549 9.52549 0 0 1-4.72869-1.25838 9.6285 9.6285 0 0 1-3.41784-3.33365 7.04855 7.04855 0 0 1-.95977-5.66311 5.15242 5.15242 0 0 1 4.078-3.28761 8.07465 8.07465 0 0 1 2.58044-.09992c3.26678.40647 7.04376 3.97722 9.54316 6.33933.52878.5 1.0018.94724 1.40468 1.30335.34712.307.75659.68945 1.21643 1.11871 2.94244 2.7434 7.8669 7.33693 12.30455 7.33693a11.98981 11.98981 0 0 0 0-23.97962zm0 21.524c-3.47 0-7.952-4.17985-10.6295-6.67746-.47721-.44484-.90287-.84172-1.26438-1.16187-.3855-.34172-.83813-.76978-1.34473-1.2482-2.73261-2.58273-6.86151-6.48681-10.93045-6.9928a10.13957 10.13957 0 0 0-5.45167.813 9.51494 9.51494 0 0 1 7.59975-3.801c3.46942 0 7.95084 4.17985 10.6289 6.67746.47721.44484.90287.84172 1.26438 1.16187.3855.34052.83813.76858 1.34413 1.247 2.73261 2.58393 6.86211 6.488 10.93165 6.9928a10.1413 10.1413 0 0 0 5.45129-.81235 9.514 9.514 0 0 1-7.59937 3.80153z" class="cls-1"/>
  </g>
</svg>
