<svg xmlns="http://www.w3.org/2000/svg" viewBox="0 0 24 18.75">
  <defs/>
  <g id="fuse-symbol--on-dark--24">
    <path d="M10.08253 10.42c.26453.25031.50843.48141.71252.66061.16711.14862.36337.33136.5831.53616l.03128.02916c1.47623 1.37667 3.94159 3.67492 6.141 3.67492a5.95327 5.95327 0 0 0 0-11.90653.528.528 0 0 0 0 1.056 4.89389 4.89389 0 0 1 4.17411 2.34163 3.51766 3.51766 0 0 1 .24888 3.2696 2.54746 2.54746 0 0 1-2.04866 1.44139 4.52849 4.52849 0 0 1-1.152.00568C17.096 11.32027 15.1789 9.5077 13.9103 8.3088c-.2823-.26808-.50985-.48141-.7054-.65492-.17493-.155-.38257-.34843-.61509-.566-1.47335-1.37388-3.9387-3.6736-6.14024-3.6736a5.95327 5.95327 0 0 0 0 11.90653.528.528 0 1 0 .001-1.056h-.001a4.8832 4.8832 0 0 1-2.42908-.64639 4.74466 4.74466 0 0 1-2.22-2.8017A2.72434 2.72434 0 0 1 2.99936 7.577a3.27609 3.27609 0 0 1 .89664-.31927 4.09814 4.09814 0 0 1 .82274-.0832 4.19321 4.19321 0 0 1 .50772.03129c1.67465.20836 3.58962 2.01738 4.85607 3.21418zM2.6566 6.55944l-.33.15218.219-.28942a4.86079 4.86079 0 0 1 3.9039-1.95195c1.78627 0 4.06105 2.12262 5.42 3.39049l.06542.06115c.214.19911.40532.37688.571.52266.19128.17.411.37688.67909.63074 1.37027 1.29561 3.43884 3.2504 5.45976 3.50142a5.02044 5.02044 0 0 0 2.6986-.40176l.32994-.15218-.219.28942a4.86146 4.86146 0 0 1-3.9039 1.95265c-1.78627 0-4.061-2.12261-5.41995-3.39049l-.02915-.02773c-.22826-.21191-.43235-.40248-.60728-.55679-.192-.17-.41172-.37758-.6798-.63144C9.44184 8.36207 7.3747 6.4087 5.35519 6.15767a5.01259 5.01259 0 0 0-2.69859.40177z" class="cls-1"/>
    <path d="M17.53691 17.1284c-2.91121 0-5.60767-2.513-7.39109-4.17624-.21119-.19768-.401-.374-.56246-.517-.214-.18986-.46575-.42737-.74949-.69474-1.36245-1.28779-2.8842-2.62109-3.84559-2.74055a1.96616 1.96616 0 0 0-1.4478.34274.61388.61388 0 0 0-.22683.52336.50386.50386 0 0 0 .26238.40888c.1728.10026.34488.0256.54256-.06044.069-.02987.138-.059.20622-.08107a1.37375 1.37375 0 0 1 .41884-.06471 1.315 1.315 0 0 1 .49847.096 2.71078 2.71078 0 0 1 .66345.43732c.06186.04977.12373.10026.18631.14791a25.2374 25.2374 0 0 1 2.01665 1.75781c.2695.25457.54825.51767.77509.71749.14293.12657.3079.28088.50843.4679l.05333.04977c1.89649 1.76849 4.7629 4.44148 8.09152 4.44148a.528.528 0 1 0 .001-1.056h-.001zM20.4275 8.47442c-.1735-.09885-.34559-.02489-.54327.06115-.069.02986-.13724.059-.20551.08106a1.34073 1.34073 0 0 1-.9173-.03128 2.71788 2.71788 0 0 1-.662-.4359c-.06258-.05049-.12444-.101-.18844-.14933A25.53739 25.53739 0 0 1 15.895 6.24231c-.2695-.25457-.54825-.51768-.77509-.7175-.15573-.138-.33777-.30861-.56176-.51838C12.66024 3.23793 9.79383.56565 6.46594.56565a.528.528 0 0 0 0 1.056c2.914 0 5.60838 2.513 7.39109 4.17553.2119.1984.40176.374.56318.51768.214.18986.46577.42737.74949.69474 1.361 1.28778 2.88277 2.62108 3.84559 2.74055a1.97439 1.97439 0 0 0 1.44778-.34274.61393.61393 0 0 0 .22684-.52337.50286.50286 0 0 0-.26241-.40962z" class="cls-1"/>
  </g>
</svg>
