<svg xmlns="http://www.w3.org/2000/svg" viewBox="0 0 32 25">
  <defs/>
  <g id="fuse-symbol--on-light--32">
    <path d="M23.181 24.02448c-4.35174 0-8.081-3.4767-10.54856-5.7773-.28933-.27056-.52471-.4903-.72529-.66781-.28777-.25414-.62637-.57319-1.00524-.93134a32.6152 32.6152 0 0 0-2.59938-2.26583c-.50006-.38145-1.15557-.96262-1.833-.89348-.51065.05212-.86739.59022-1.40875.28864a.84757.84757 0 0 1-.06153-1.40111 2.66117 2.66117 0 0 1 1.96176-.4686c1.27893.15952 3.266 1.89787 5.04105 3.57679.364.34407.6901.65061.96692.89615.20957.18611.45512.41445.73.67094 2.30962 2.15358 5.7609 5.37147 9.48202 5.37147a.80076.80076 0 0 1 0 1.60151zM6.1517 13.4677l-.00234.00391.00234-.00391zM25.4385 13.11873a3.66186 3.66186 0 0 1-.39956-.02716c-1.27776-.15874-3.26517-1.89709-5.041-3.57679-.36362-.34329-.68932-.64983-.96653-.89537-.192-.16969-.41367-.37692-.66117-.60682l-.0935-.08759c-2.285-2.13012-5.73623-5.348-9.4573-5.348a.80076.80076 0 0 1 0-1.60151c4.35213 0 8.081 3.4767 10.54856 5.7773l.09423.08758c.23577.22052.44769.41758.63028.57945.28816.25492.62715.574 1.00524.93056a32.5976 32.5976 0 0 0 2.60085 2.26737c.55341.4221 1.38955 1.17007 2.14451.80277a2.91653 2.91653 0 0 1 .50778-.2726.79864.79864 0 0 1 .95736 1.02715c-.24878.74393-1.12925.95375-1.86975.94366zm.42309-1.60833l-.01369.02346h.00079z" class="cls-1"/>
    <path d="M23.181 4.68056a.80075.80075 0 0 0 0 1.6015 6.2116 6.2116 0 0 1 3.07312.81462 6.27947 6.27947 0 0 1 2.2265 2.15872c1.37313 2.23746.70336 5.53277-2.24405 5.9162a5.80651 5.80651 0 0 1-1.45954.00708c-2.13051-.26431-4.59415-2.593-6.2242-4.13434-.34485-.32609-.65334-.617-.9157-.84924-.22677-.20018-.49382-.44964-.79371-.72959-1.9186-1.78995-5.1302-4.78495-8.02393-4.78495a7.81944 7.81944 0 1 0 0 15.63888.80075.80075 0 1 0 0-1.6015 6.21224 6.21224 0 0 1-3.08393-.82069 6.27944 6.27944 0 0 1-2.229-2.17411 4.59686 4.59686 0 0 1-.62592-3.69334 3.36029 3.36029 0 0 1 2.65949-2.1441A5.26608 5.26608 0 0 1 7.223 9.82053c2.13051.2651 4.59376 2.59384 6.22381 4.13435.34485.32609.65334.61777.91609.85.22638.20018.49343.44964.79332.72959 1.919 1.78917 5.13059 4.785 8.02471 4.785a7.81944 7.81944 0 0 0 0-15.63888zm0 14.03738c-2.26306 0-5.18611-2.726-6.93228-4.35487-.31123-.29011-.58883-.54895-.8246-.75774-.25141-.22286-.54661-.502-.877-.814-1.78214-1.68439-4.4749-4.23053-7.12856-4.56053a6.61283 6.61283 0 0 0-3.55548.5302 6.20541 6.20541 0 0 1 4.95636-2.47894c2.26267 0 5.18533 2.726 6.93189 4.35487.31123.29011.58883.54895.8246.75774.25141.22208.54661.50125.8766.81326 1.78214 1.68517 4.47529 4.23131 7.12934 4.56052a6.61387 6.61387 0 0 0 3.55519-.52979 6.20476 6.20476 0 0 1-4.95606 2.47928z" class="cls-1"/>
  </g>
</svg>
