<svg xmlns="http://www.w3.org/2000/svg" viewBox="0 0 48 37.5">
  <defs/>
  <g id="fuse-symbol--on-dark--48">
    <path d="M20.16507 20.83993c.52905.50061 1.01686.96282 1.425 1.3212.33421.29724.72673.66274 1.16619 1.07234l.06258.05831c2.95245 2.75334 7.88316 7.34984 12.282 7.34984a11.90653 11.90653 0 0 0 0-23.813 1.056 1.056 0 0 0 0 2.11194 9.78769 9.78769 0 0 1 8.34822 4.68326 7.03522 7.03522 0 0 1 .49776 6.53919 5.09487 5.09487 0 0 1-4.09731 2.88277 9.0569 9.0569 0 0 1-2.30393.01138c-3.35352-.4167-7.18773-4.04184-9.72493-6.43965-.5646-.53616-1.0197-.96282-1.4108-1.30983-.34986-.31-.76513-.69687-1.23019-1.13206-2.94674-2.74766-7.87746-7.347-12.28052-7.347a11.90653 11.90653 0 0 0 0 23.81305 1.056 1.056 0 0 0 .00206-2.11194h-.00206A9.76662 9.76662 0 0 1 8.041 27.23691a9.48938 9.48938 0 0 1-4.44009-5.60341c-.731-2.759.21048-5.3019 2.3978-6.47947a6.55347 6.55347 0 0 1 1.79335-.63858 8.197 8.197 0 0 1 1.64547-.16639 8.3882 8.3882 0 0 1 1.01544.06257c3.34925.41672 7.17919 4.03476 9.7121 6.4283zM5.3132 13.11889l-.65989.30435.438-.57883a9.72152 9.72152 0 0 1 7.80781-3.9039c3.57252 0 8.12209 4.24522 10.83988 6.781l.13085.1223c.42807.39821.81064.75376 1.142 1.04531.38256.3399.822.75376 1.35819 1.26148 2.74054 2.59121 6.87768 6.5008 10.91953 7.00283a10.04078 10.04078 0 0 0 5.39719-.80352l.65989-.30434-.438.57883a9.72288 9.72288 0 0 1-7.8078 3.9053c-3.57253 0-8.12209-4.24523-10.83989-6.781l-.0583-.05546c-.45653-.42381-.86469-.80495-1.21455-1.11357-.384-.3399-.82344-.75518-1.35961-1.2629-2.74482-2.59264-6.8791-6.49938-10.91811-7.00143a10.0251 10.0251 0 0 0-5.39719.80355z" class="cls-1"/>
    <path d="M35.07382 34.25681c-5.82241 0-11.21534-5.026-14.78218-8.35249-.42239-.39536-.80211-.74807-1.12493-1.03392-.42807-.37972-.9315-.85474-1.499-1.38948-2.72491-2.57558-5.7684-5.24217-7.69118-5.4811a3.93232 3.93232 0 0 0-2.89553.68548 1.22776 1.22776 0 0 0-.45371 1.0467 1.00776 1.00776 0 0 0 .52477.81775c.3456.20053.68976.0512 1.08513-.12088.138-.05974.27591-.11805.41243-.16214a2.74748 2.74748 0 0 1 .83767-.12942 2.63006 2.63006 0 0 1 .997.192 5.42108 5.42108 0 0 1 1.3269.87464c.12373.09955.24746.20052.37261.29581a50.47722 50.47722 0 0 1 4.03331 3.51562c.539.50914 1.09651 1.03535 1.55018 1.435.28586.25316.61581.56177 1.01687.9358l.10666.09955c3.793 3.537 9.52579 8.883 16.183 8.883a1.056 1.056 0 1 0 .00207-2.11194h-.00209zM40.855 16.94883c-.347-.19768-.69119-.04978-1.08655.12231-.13795.05973-.27449.118-.411.16213a2.68163 2.68163 0 0 1-1.83462-.06258 5.43576 5.43576 0 0 1-1.324-.87179c-.12515-.101-.24888-.202-.37688-.29866A51.07284 51.07284 0 0 1 31.79 12.48462c-.539-.50915-1.0965-1.03535-1.55018-1.435-.31148-.2759-.67554-.61723-1.12353-1.03677-3.79582-3.537-9.52864-8.88156-16.18443-8.88156a1.056 1.056 0 0 0 0 2.11194c5.82811 0 11.21677 5.026 14.78218 8.35107.42381.39679.80352.74807 1.12637 1.03535.42808.37972.93154.85473 1.499 1.38947 2.722 2.57558 5.76554 5.24217 7.69118 5.4811a3.94872 3.94872 0 0 0 2.89556-.68547 1.22781 1.22781 0 0 0 .45368-1.04673 1.0058 1.0058 0 0 0-.52483-.81919z" class="cls-1"/>
  </g>
</svg>
