<svg xmlns="http://www.w3.org/2000/svg" viewBox="0 0 64 50">
  <defs/>
  <g id="fuse-symbol--on-light--64">
    <path d="M46.84063 48.81725c-8.99359 0-16.70076-7.18517-21.80036-11.93973-.598-.55917-1.0844-1.0133-1.49893-1.38015-.59472-.52523-1.29449-1.1846-2.0775-1.92478a67.40772 67.40772 0 0 0-5.37194-4.68272c-1.03347-.78833-2.38817-1.9894-3.7881-1.84652-1.05534.10771-1.79261 1.2198-2.91143.59653a1.75165 1.75165 0 0 1-.12715-2.89562 5.49963 5.49963 0 0 1 4.0543-.96845c2.64313.32968 6.74963 3.92227 10.41818 7.392.75229.71108 1.4262 1.34459 1.9983 1.852.43312.38463.94057.85653 1.50863 1.38661 4.77315 4.45074 11.9058 11.101 19.596 11.101a1.65489 1.65489 0 1 1 0 3.30977zM11.64686 26.99992l-.00486.00808.00485-.00808zM51.50623 26.27871a7.57445 7.57445 0 0 1-.82575-.05613c-2.6407-.32807-6.748-3.92066-10.41818-7.392-.75148-.70946-1.42459-1.343-1.99749-1.85043-.39676-.35069-.85492-.779-1.36642-1.25409l-.19312-.181C31.983 11.14276 24.85038 4.49252 17.16018 4.49252a1.65489 1.65489 0 1 1 0-3.30977c8.99439 0 16.70076 7.18517 21.80036 11.93973l.19474.181c.48725.45574.92521.863 1.30257 1.19753.59553.52684 1.29611 1.18621 2.0775 1.92315a67.3655 67.3655 0 0 0 5.37509 4.6859c1.14371.87236 2.87174 2.41815 4.432 1.65907a6.02978 6.02978 0 0 1 1.0494-.56339 1.65056 1.65056 0 0 1 1.97856 2.1228c-.51416 1.53734-2.33391 1.97103-3.86417 1.95017zm.87439-3.32388l-.02828.04848h.00166c.008-.01616.01773-.03231.02662-.04848z" class="cls-1"/>
    <path d="M46.84063 8.83982a1.65489 1.65489 0 0 0 0 3.30977 12.83736 12.83736 0 0 1 6.35112 1.68355 12.97763 12.97763 0 0 1 4.60143 4.46134c2.8378 4.62409 1.45362 11.43441-4.6377 12.22682a12.00042 12.00042 0 0 1-3.01639.01465c-4.40306-.54625-9.49458-5.359-12.86334-8.54432-.7127-.67391-1.35025-1.2751-1.89245-1.75508-.46867-.41372-1.02056-.92926-1.64034-1.50782-3.9651-3.69925-10.60241-9.88891-16.58278-9.88891a16.16018 16.16018 0 1 0 0 32.32036 1.65489 1.65489 0 0 0 0-3.30977 12.83871 12.83871 0 0 1-6.37345-1.69609 12.97738 12.97738 0 0 1-4.60665-4.49317 9.50019 9.50019 0 0 1-1.29357-7.6329 6.94461 6.94461 0 0 1 5.49642-4.43114 10.8832 10.8832 0 0 1 3.478-.13467c4.40306.54786 9.49377 5.3606 12.86253 8.54431.7127.67391 1.35025 1.27672 1.89326 1.7567.46786.41372 1.01976.92926 1.63953 1.50782 3.96591 3.69763 10.60322 9.88891 16.5844 9.88891a16.16018 16.16018 0 0 0 0-32.32036zm0 29.01059c-4.677 0-10.718-5.63372-14.32671-9.00006-.64321-.59957-1.21692-1.1345-1.70418-1.566-.51957-.46059-1.12965-1.03754-1.81245-1.68236-3.68309-3.48108-9.24812-8.7431-14.73235-9.42509A13.66632 13.66632 0 0 0 6.917 17.27263a12.82446 12.82446 0 0 1 10.24314-5.123c4.67618 0 10.71634 5.63372 14.3259 9.00006.64321.59957 1.21692 1.1345 1.70418 1.566.51957.459 1.12965 1.03592 1.81164 1.68075 3.68309 3.48269 9.24893 8.74471 14.734 9.42508a13.66882 13.66882 0 0 0 7.34739-1.0949 12.82322 12.82322 0 0 1-10.24262 5.12379z" class="cls-1"/>
  </g>
</svg>
