<svg xmlns="http://www.w3.org/2000/svg" viewBox="0 0 64 50">
  <defs/>
  <g id="fuse-symbol--on-dark--64">
    <path d="M26.83408 27.81528c.71268.67435 1.36978 1.297 1.91962 1.77975.45021.4004.979.89275 1.57094 1.44451l.08429.07855c3.97716 3.70894 10.61917 9.90075 16.54469 9.90075a16.03892 16.03892 0 0 0 0-32.07784 1.42247 1.42247 0 0 0 0 2.84494 13.1847 13.1847 0 0 1 11.24562 6.30867 9.477 9.477 0 0 1 .67053 8.80875 6.86322 6.86322 0 0 1-5.51936 3.88329 12.2 12.2 0 0 1-3.10357.01532c-4.51742-.56132-9.68236-5.44464-13.10014-8.67465-.76056-.72224-1.37362-1.297-1.90045-1.76443-.47128-.41764-1.03069-.93873-1.65715-1.525C29.61963 15.13664 22.97762 8.941 17.04638 8.941a16.03892 16.03892 0 0 0 0 32.07784 1.42247 1.42247 0 1 0 .00278-2.84494h-.00278a13.15613 13.15613 0 0 1-6.5443-1.74145A12.78286 12.78286 0 0 1 4.521 28.88428c-.98471-3.71662.28354-7.142 3.23-8.7283a8.82764 8.82764 0 0 1 2.41577-.86021 11.0416 11.0416 0 0 1 2.21656-.22414 11.29785 11.29785 0 0 1 1.36787.08429c4.51168.56135 9.67087 5.43508 13.08288 8.65936zM6.82759 17.4145l-.88892.41.59006-.77972a13.09555 13.09555 0 0 1 10.51765-5.25882c4.81245 0 10.941 5.71861 14.60208 9.13444l.17626.16475c.57664.53642 1.092 1.01537 1.53837 1.4081.51534.45788 1.10732 1.01537 1.82957 1.6993 3.69171 3.49055 9.26472 8.757 14.70936 9.43331a13.52559 13.52559 0 0 0 7.27039-1.0824l.88891-.41-.59006.77972a13.09738 13.09738 0 0 1-10.51764 5.26072c-4.81245 0-10.941-5.71861-14.60208-9.13444l-.07855-.07471c-.615-.57091-1.16479-1.08433-1.63608-1.50006-.51726-.45787-1.10923-1.01727-1.83148-1.70121C25.108 22.271 19.5388 17.00837 14.098 16.33206a13.50459 13.50459 0 0 0-7.27041 1.08244z" class="cls-1"/>
    <path d="M46.91721 45.88874c-7.8432 0-15.10785-6.77036-19.91262-11.25137-.569-.53259-1.0805-1.00771-1.51536-1.39277-.57665-.51151-1.2548-1.15139-2.01923-1.87172-3.67063-3.46948-7.77043-7.06157-10.36054-7.38342a5.29716 5.29716 0 0 0-3.90057.92338 1.6539 1.6539 0 0 0-.61113 1.41 1.35752 1.35752 0 0 0 .7069 1.10157c.46554.27012.92915.069 1.46174-.16284.18584-.08047.37167-.159.55558-.2184a3.701 3.701 0 0 1 1.1284-.17435 3.543 3.543 0 0 1 1.343.25864 7.30306 7.30306 0 0 1 1.78742 1.17819c.16667.13411.33334.27013.50194.39849a67.9914 67.9914 0 0 1 5.4331 4.73586c.72608.68584 1.47707 1.39469 2.0882 1.933.38508.341.82954.75674 1.36979 1.26059l.14368.1341c5.10939 4.76455 12.8319 11.966 21.79967 11.966a1.42247 1.42247 0 1 0 .00282-2.84501h-.00278zM54.70486 22.5737c-.46745-.26629-.93107-.067-1.46366.16475-.18583.08047-.36975.159-.55366.21841a3.61229 3.61229 0 0 1-2.47135-.0843 7.322 7.322 0 0 1-1.78359-1.17437c-.16859-.136-.33526-.272-.50768-.40231a68.79634 68.79634 0 0 1-5.43124-4.73578c-.72609-.68586-1.47707-1.39469-2.0882-1.933-.41958-.37166-.91-.83145-1.51347-1.3966C33.77878 8.46589 26.05627 1.26639 17.09047 1.26639a1.42247 1.42247 0 0 0 0 2.84493c7.85086 0 15.10976 6.77037 19.91262 11.24947.5709.53451 1.0824 1.0077 1.51729 1.39468.57665.51152 1.25484 1.15139 2.01923 1.87173 3.66677 3.46947 7.76658 7.06156 10.36055 7.38341a5.31918 5.31918 0 0 0 3.90053-.92338 1.654 1.654 0 0 0 .61113-1.41 1.35484 1.35484 0 0 0-.70696-1.10353z" class="cls-1"/>
  </g>
</svg>
