<svg xmlns="http://www.w3.org/2000/svg" viewBox="0 0 24 18.75">
  <defs/>
  <g id="fuse-symbol--on-light--24">
    <path d="M17.5054 18.21043c-3.33634 0-6.19545-2.66547-8.08723-4.42925-.22183-.20744-.40228-.3759-.55606-.512-.22062-.19484-.48022-.43944-.77068-.714A25.00618 25.00618 0 0 0 6.09861 10.818c-.38338-.29245-.88594-.738-1.40526-.685-.3915.03995-.665.4525-1.08.22129a.6498.6498 0 0 1-.04717-1.07418 2.04022 2.04022 0 0 1 1.504-.35927c.98052.12231 2.5039 1.455 3.86481 2.74221.27908.26379.52908.4988.74131.68705.16067.14269.34892.31775.55965.51439 1.77068 1.65108 4.41667 4.1181 7.26949 4.1181a.61391.61391 0 0 1 0 1.22782zM4.44964 10.11691l-.0018.003.0018-.003zM19.23618 9.84936a2.809 2.809 0 0 1-.30632-.02082c-.97962-.12171-2.5033-1.45444-3.86481-2.74221-.27878-.26319-.52848-.4982-.741-.68645-.14718-.1301-.31715-.289-.50689-.46523l-.07165-.06714c-1.75179-1.6331-4.39778-4.10012-7.2506-4.10012a.61391.61391 0 0 1 0-1.22782c3.33663 0 6.19545 2.66547 8.08723 4.42925l.07225.06715c.18075.16907.34322.32015.48321.44425.22092.19544.48082.44.77068.71343a24.994 24.994 0 0 0 1.994 1.73831c.42428.32362 1.06532.89706 1.64413.61546a2.23754 2.23754 0 0 1 .38929-.209.61231.61231 0 0 1 .734.78749c-.19077.57031-.86584.73119-1.43352.72345zm.32437-1.23305l-.01049.018h.0006z" class="cls-1"/>
    <path d="M17.5054 3.3801a.61391.61391 0 1 0 0 1.22781 4.76225 4.76225 0 0 1 2.35607.62455 4.81429 4.81429 0 0 1 1.707 1.655c1.05273 1.71539.53924 4.2418-1.72044 4.53575a4.45171 4.45171 0 0 1-1.119.00544c-1.6334-.20264-3.52219-1.988-4.77189-3.16967-.26438-.25-.50089-.473-.702-.65108-.17386-.15347-.3786-.34472-.60852-.55935C11.17566 5.67626 8.71343 3.3801 6.4949 3.3801a5.9949 5.9949 0 1 0 0 11.9898.61391.61391 0 1 0 0-1.22781 4.76275 4.76275 0 0 1-2.36434-.6292 4.81411 4.81411 0 0 1-1.70892-1.66682 3.5243 3.5243 0 0 1-.47987-2.83156 2.57624 2.57624 0 0 1 2.039-1.64381 4.03762 4.03762 0 0 1 1.29022-.05c1.6334.20324 3.52189 1.98861 4.77159 3.16967.26438.25.5009.47362.70233.65168.17357.15347.3783.34472.60822.55935 1.47122 1.3717 3.93345 3.66846 6.15228 3.66846a5.9949 5.9949 0 0 0 0-11.9898zm0 10.762c-1.735 0-3.976-2.08993-5.31475-3.33873-.23861-.22242-.45144-.42087-.6322-.58094-.19274-.17086-.41906-.38489-.67236-.6241C9.51978 8.307 7.45534 6.35492 5.42086 6.10192a5.06983 5.06983 0 0 0-2.72586.40647 4.75746 4.75746 0 0 1 3.7999-1.90048c1.73472 0 3.97542 2.08993 5.31445 3.33873.23861.22242.45144.42087.6322.58094.19274.17026.41906.38429.67206.6235 1.36631 1.292 3.43105 3.244 5.46583 3.4964a5.07069 5.07069 0 0 0 2.72564-.40617 4.757 4.757 0 0 1-3.79968 1.90078z" class="cls-1"/>
  </g>
</svg>
