<svg xmlns="http://www.w3.org/2000/svg" id="fuse-symbol--on-light--16" viewBox="0 0 16 12.5">
  <defs/>
  <path d="M11.59048 12.01224c-2.17587 0-4.04051-1.73835-5.27429-2.88865-.14466-.13528-.26235-.24515-.36264-.3339-.14388-.12708-.31318-.2866-.50262-.46568A16.31024 16.31024 0 0 0 4.15127 7.1911c-.25-.19073-.57779-.48131-.91648-.44674-.25532.02606-.4337.29511-.70438.14432a.42378.42378 0 0 1-.03076-.70055 1.33058 1.33058 0 0 1 .98088-.23431 6.61982 6.61982 0 0 1 2.52053 1.7884c.182.172.34505.3253.48346.44808.10478.093.22755.20722.365.33547 1.15479 1.07679 2.88043 2.68572 4.741 2.68572a.40038.40038 0 0 1 0 .80075zM3.07585 6.73385l-.00117.002.00117-.002zM12.71925 6.55937a1.836 1.836 0 0 1-.19978-.01358 6.61827 6.61827 0 0 1-2.52053-1.7884c-.18181-.17165-.34465-.32491-.48326-.44769-.096-.08484-.20684-.18845-.33058-.30341l-.04673-.04379c-1.14248-1.06506-2.86812-2.674-4.72865-2.674a.40038.40038 0 1 1 0-.80075c2.17606 0 4.04051 1.73835 5.27428 2.88865l.04712.04379c.11788.11026.22384.20879.31513.28972.14408.12747.31358.287.50262.46528a16.29868 16.29868 0 0 0 1.30043 1.1337c.2767.21105.69478.585 1.07226.40139a1.45874 1.45874 0 0 1 .25388-.13631.39934.39934 0 0 1 .47869.51358c-.1244.37194-.56466.47686-.93488.47182zm.21154-.80417l-.00684.01173h.00039z" class="cls-1"/>
  <path d="M11.59048 2.34028a.40038.40038 0 1 0 0 .80075 3.10576 3.10576 0 0 1 1.53657.40731 3.13977 3.13977 0 0 1 1.11324 1.07936 1.86054 1.86054 0 0 1-1.122 2.9581 2.90325 2.90325 0 0 1-.72977.00354c-1.06526-.13215-2.29708-1.29653-3.1121-2.06717-.17243-.163-.32667-.30849-.45785-.42462-.11339-.10009-.24691-.22482-.39686-.36479-.95929-.895-2.5651-2.39248-4.012-2.39248a3.90972 3.90972 0 1 0 0 7.81944.40038.40038 0 1 0 0-.80075 3.10619 3.10619 0 0 1-1.542-.41034 3.13976 3.13976 0 0 1-1.11447-1.08706 2.29849 2.29849 0 0 1-.313-1.84667 1.68016 1.68016 0 0 1 1.32978-1.072 2.63307 2.63307 0 0 1 .84145-.03258c1.06526.13254 2.29688 1.29692 3.1119 2.06717.17243.163.32668.30888.45805.425.11319.10009.24671.22482.39666.36479.95949.89459 2.5653 2.39248 4.01236 2.39248a3.90972 3.90972 0 0 0 0-7.81944zm0 7.01869c-1.13153 0-2.59306-1.363-3.46614-2.17743-.15562-.14506-.29442-.27448-.41231-.37887-.1257-.11144-.2733-.251-.43849-.407-.89107-.84219-2.23745-2.11526-3.56428-2.28026a3.30645 3.30645 0 0 0-1.77772.26509A3.10271 3.10271 0 0 1 4.40972 3.141c1.13133 0 2.59267 1.363 3.46594 2.17743.15562.14506.29442.27448.41231.37887.1257.111.2733.25063.4383.40663.89107.84259 2.23764 2.11566 3.56467 2.28027a3.307 3.307 0 0 0 1.77759-.2649 3.10239 3.10239 0 0 1-2.47805 1.2397z" class="cls-1"/>
</svg>
