<svg xmlns="http://www.w3.org/2000/svg" viewBox="0 0 133.5 25">
    <path d="M6.10931 8.51111a3.70827 3.70827 0 0 1 1.45935.27 3.44562 3.44562 0 0 1 1.17847.85412 1.08616 1.08616 0 0 0 .8432.38892.84217.84217 0 0 0 .49719-.15155.94773.94773 0 0 0 .4759-.79968.80776.80776 0 0 0-.21631-.56177 5.37238 5.37238 0 0 0-4.2378-1.94617 5.98781 5.98781 0 0 0-3.027.76715A5.37638 5.37638 0 0 0 .99585 9.473 6.39416 6.39416 0 0 0 .25 12.57526a6.1613 6.1613 0 0 0 .76746 3.06005 5.54978 5.54978 0 0 0 2.1297 2.15107 6.07586 6.07586 0 0 0 3.07019.77832 5.49256 5.49256 0 0 0 3.89178-1.44843.80662.80662 0 0 0 .25958-.58362 1.00851 1.00851 0 0 0-.41082-.77887.91781.91781 0 0 0-.562-.19421 1.3548 1.3548 0 0 0-.8.30249 3.59244 3.59244 0 0 1-2.37854.757A3.84575 3.84575 0 0 1 4.21729 16.1a3.59082 3.59082 0 0 1-1.362-1.43775 4.39041 4.39041 0 0 1-.48652-2.087A4.15551 4.15551 0 0 1 3.40668 9.624a3.52653 3.52653 0 0 1 2.70263-1.11289zM30.53705 7.30011a5.43859 5.43859 0 0 0-2.87555-.73517 5.93 5.93 0 0 0-3.0163.76715A5.39888 5.39888 0 0 0 22.56964 9.473a6.3948 6.3948 0 0 0-.74579 3.10224 6.05213 6.05213 0 0 0 .789 3.0921 5.5649 5.5649 0 0 0 2.19452 2.12966 6.60261 6.60261 0 0 0 5.265.40014 5.98533 5.98533 0 0 0 1.8269-.95123.78332.78332 0 0 0 .346-.64868.9446.9446 0 0 0-.38916-.73517.93184.93184 0 0 0-.64874-.21606 1.11821 1.11821 0 0 0-.7135.23791 4.03549 4.03549 0 0 1-1.15662.58368 4.38923 4.38923 0 0 1-4.12976-.692 3.8074 3.8074 0 0 1-1.37293-2.44335h8.216a.98538.98538 0 0 0 .71356-.27051.90365.90365 0 0 0 .28113-.68073 6.771 6.771 0 0 0-.64875-3.027 4.84623 4.84623 0 0 0-1.85945-2.05389zm-6.68091 4.30255a3.88306 3.88306 0 0 1 1.24329-2.31372 3.7393 3.7393 0 0 1 2.56207-.86426 3.1737 3.1737 0 0 1 2.31348.86426 3.83673 3.83673 0 0 1 1.08111 2.31372zM44.00525 7.354a5.87166 5.87166 0 0 0-3.01636-.78906 5.9861 5.9861 0 0 0-3.03772.78906 5.6844 5.6844 0 0 0-2.15124 2.16224 6.09282 6.09282 0 0 0-.77838 3.059 6.45483 6.45483 0 0 0 .72418 3.06005 5.45709 5.45709 0 0 0 1.98913 2.15107 5.39421 5.39421 0 0 0 6.99457-1.18915v.79968a1.10289 1.10289 0 1 0 2.20545 0v-4.82163a6.03008 6.03008 0 0 0-.78931-3.059A5.81875 5.81875 0 0 0 44.00525 7.354zm.31341 7.28638a3.81733 3.81733 0 0 1-5.28637 1.44843 3.81129 3.81129 0 0 1-1.38385-1.44843 4.194 4.194 0 0 1-.50812-2.06512 4.25659 4.25659 0 0 1 .50812-2.07532 3.79709 3.79709 0 0 1 1.38385-1.4596 3.76451 3.76451 0 0 1 5.28637 1.4596 4.33349 4.33349 0 0 1 .4972 2.07532 4.26951 4.26951 0 0 1-.4972 2.06512zM54.77136 16.316h-.73517a1.452 1.452 0 0 1-1.16729-.58362 2.21991 2.21991 0 0 1-.47583-1.449V8.55432h1.83734a1.03967 1.03967 0 0 0 .73511-.25928.84544.84544 0 0 0 .28167-.64874.89544.89544 0 0 0-.28167-.69189 1.03758 1.03758 0 0 0-.73511-.25983h-1.83734v-3.4375a1.08146 1.08146 0 1 0-2.16224 0v3.4375h-.99444a1.039 1.039 0 0 0-.73517.25983.89609.89609 0 0 0-.28113.69189.846.846 0 0 0 .28113.64874 1.04114 1.04114 0 0 0 .73517.25928h.99444v5.72913a4.54872 4.54872 0 0 0 .49775 2.14093 3.83734 3.83734 0 0 0 1.37213 1.50281 3.56643 3.56643 0 0 0 1.93548.55108h.38947a1.37158 1.37158 0 0 0 .91864-.30249.97387.97387 0 0 0 .35638-.77887 1.12276 1.12276 0 0 0-.27-.77783.85226.85226 0 0 0-.65932-.30308zM59.3703 2.1106a1.37047 1.37047 0 0 0-1.00561.422 1.409 1.409 0 0 0 0 2.01013 1.40852 1.40852 0 0 0 2.01068 0 1.40789 1.40789 0 0 0 0-2.01013 1.36929 1.36929 0 0 0-1.00507-.422zM59.3703 6.65137a1.08984 1.08984 0 0 0-.78906.303 1.0603 1.0603 0 0 0-.31366.79968v9.62146a1.07165 1.07165 0 0 0 1.10272 1.10272 1.05974 1.05974 0 0 0 .7997-.31313 1.09269 1.09269 0 0 0 .303-.78955V7.75409a1.04124 1.04124 0 0 0-1.1027-1.10272zM73.83051 6.80286a1.09817 1.09817 0 0 0-.49726-.10828 1.06081 1.06081 0 0 0-.52972.14032.92308.92308 0 0 0-.37824.40009l-3.719 8.108L64.94415 7.235a.9438.9438 0 0 0-.36755-.40009.96741.96741 0 0 0-.49719-.14032.91887.91887 0 0 0-.454.10828.9551.9551 0 0 0-.60547.88665.85769.85769 0 0 0 .08642.38892L67.69 17.74316a1.4052 1.4052 0 0 0 .43268.55109 1.09427 1.09427 0 0 0 1.59992-.55109l4.58374-9.66473a.92026.92026 0 0 0 .10778-.41077.90153.90153 0 0 0-.151-.50842 1.01725 1.01725 0 0 0-.43261-.35638zM86.59131 13.06177a.90365.90365 0 0 0 .28113-.68073 6.771 6.771 0 0 0-.64875-3.027 4.84378 4.84378 0 0 0-1.85919-2.05393 5.43975 5.43975 0 0 0-2.876-.73517 5.92732 5.92732 0 0 0-3.0158.76715A5.39783 5.39783 0 0 0 76.39685 9.473a6.39483 6.39483 0 0 0-.74585 3.10224 6.0497 6.0497 0 0 0 .78906 3.0921 5.56392 5.56392 0 0 0 2.19477 2.12966 6.60131 6.60131 0 0 0 5.26446.40014 5.98717 5.98717 0 0 0 1.82721-.95123.78306.78306 0 0 0 .3457-.64868.945.945 0 0 0-.38891-.73517.93237.93237 0 0 0-.64874-.21606 1.118 1.118 0 0 0-.71326.23791 4.04234 4.04234 0 0 1-1.15717.58368 4.19753 4.19753 0 0 1-1.35131.23792 4.24221 4.24221 0 0 1-2.77839-.92988 3.80791 3.80791 0 0 1-1.37268-2.44335H85.878a.98471.98471 0 0 0 .71331-.27051zm-8.9082-1.45911a3.88591 3.88591 0 0 1 1.24353-2.31372 3.739 3.739 0 0 1 2.56182-.86426 3.17349 3.17349 0 0 1 2.31373.86426 3.83382 3.83382 0 0 1 1.08087 2.31372zM20.665 6.84991a3.82646 3.82646 0 0 0-1.8042-.32824 4.84742 4.84742 0 0 0-2.03241.43274 4.56092 4.56092 0 0 0-1.59985 1.18853v-.4107a.95569.95569 0 0 0-1.08112-1.08081.97968.97968 0 0 0-1.08111 1.08081v9.66461a1.07426 1.07426 0 0 0 .28106.811 1.10764 1.10764 0 0 0 .80005.27045 1.07456 1.07456 0 0 0 .81079-.28119 1.10754 1.10754 0 0 0 .27033-.80023c0-.84534-.00733-4.72467-.00733-4.72467.0083-.13287.01319-.26581.02948-.3988a4.13685 4.13685 0 0 1 1.77812-3.08481 4.0796 4.0796 0 0 1 1.71832-.5885 5.12465 5.12465 0 0 1 .89014-.01245c.2749.01678.53851.11639.81543.10955a.91923.91923 0 0 0 .689-1.42663 1.42039 1.42039 0 0 0-.4767-.42066z" />
    <path d="M94.51556 1.59174a5.01954 5.01954 0 0 0-2.54046.63806 4.41112 4.41112 0 0 0-1.72956 1.79468 5.64385 5.64385 0 0 0-.61615 2.692v10.65907a1.06075 1.06075 0 0 0 .31366.80023 1.036 1.036 0 0 0 .74585.30249 1.13969 1.13969 0 0 0 .8429-.30249 1.08207 1.08207 0 0 0 .303-.80023V8.94324h2.20544a1.04246 1.04246 0 0 0 .73511-.25928.84827.84827 0 0 0 .28064-.64874.89849.89849 0 0 0-.28064-.6919 1.04031 1.04031 0 0 0-.73511-.25982h-2.2054v-.58362a3.0083 3.0083 0 0 1 .73511-2.119 2.51658 2.51658 0 0 1 1.94561-.79974A1.13788 1.13788 0 0 0 95.30518 3.3a.91671.91671 0 0 0 .31311-.71381.91709.91709 0 0 0-.31311-.71326 1.14048 1.14048 0 0 0-.78962-.28119zM106.56213 6.63a1.08915 1.08915 0 0 0-.789.3025 1.06108 1.06108 0 0 0-.31372.79974V13.83a2.46246 2.46246 0 0 1-.42145 1.40521 2.93156 2.93156 0 0 1-1.16778.99438 3.686 3.686 0 0 1-1.65381.36762 3.46741 3.46741 0 0 1-2.49731-.89734 3.4914 3.4914 0 0 1-.9405-2.6488V7.73224a1.10289 1.10289 0 1 0-2.20544 0v5.31885a6.22932 6.22932 0 0 0 .67 2.995 4.56508 4.56508 0 0 0 1.85975 1.89179 5.50759 5.50759 0 0 0 2.68078.64874 5.43744 5.43744 0 0 0 2.03259-.37879 4.79494 4.79494 0 0 0 1.64313-1.07019v.23792a1.07174 1.07174 0 0 0 1.10272 1.10272 1.05976 1.05976 0 0 0 .79969-.31317 1.09043 1.09043 0 0 0 .303-.78955V7.73224A1.04045 1.04045 0 0 0 106.56213 6.63zM115.55713 11.51624a10.40985 10.40985 0 0 1-1.75147-.48652 1.92469 1.92469 0 0 1-.82159-.5404 1.18118 1.18118 0 0 1-.21655-.72449 1.033 1.033 0 0 1 .638-.94055 3.49534 3.49534 0 0 1 1.6325-.335 4.61952 4.61952 0 0 1 1.47028.20538 3.2369 3.2369 0 0 1 1.14594.70258 1.47777 1.47777 0 0 0 1.01629.41082 1.002 1.002 0 0 0 .60553-.17285.86658.86658 0 0 0 .36756-.67059 1.10107 1.10107 0 0 0-.28113-.69141 4.30374 4.30374 0 0 0-1.76215-1.25427 6.62729 6.62729 0 0 0-2.5191-.454 6.31245 6.31245 0 0 0-2.16223.36756 3.81149 3.81149 0 0 0-1.64313 1.10272 2.669 2.669 0 0 0-.62688 1.79468q0 2.61592 4.15112 3.416a6.59631 6.59631 0 0 1 2.27051.74634 1.305 1.305 0 0 1 .67 1.11285 1.24452 1.24452 0 0 1-.68127 1.10327 3.71856 3.71856 0 0 1-1.91309.41077 4.59935 4.59935 0 0 1-1.7514-.335 3.33424 3.33424 0 0 1-1.23236-.78955 1.15949 1.15949 0 0 0-.8216-.38947 1.31186 1.31186 0 0 0-.757.303 1.00558 1.00558 0 0 0-.43213.8429.91509.91509 0 0 0 .28064.67059 5.30826 5.30826 0 0 0 2.0326 1.18915 8.30822 8.30822 0 0 0 2.7677.454 6.18859 6.18859 0 0 0 2.51862-.46475 3.60015 3.60015 0 0 0 1.58924-1.27613 3.18242 3.18242 0 0 0 .54046-1.80529 2.74347 2.74347 0 0 0-.98376-2.1836 7.54984 7.54984 0 0 0-3.34015-1.31874zM132.96887 13.06177a.90362.90362 0 0 0 .28113-.68077 6.771 6.771 0 0 0-.64874-3.027 4.84378 4.84378 0 0 0-1.85919-2.05389 5.43975 5.43975 0 0 0-2.876-.73517 5.92736 5.92736 0 0 0-3.01581.76715 5.3979 5.3979 0 0 0-2.07585 2.14091 6.39483 6.39483 0 0 0-.74585 3.10224 6.0497 6.0497 0 0 0 .78907 3.0921 5.56389 5.56389 0 0 0 2.19476 2.12964 6.60133 6.60133 0 0 0 5.26447.40014 5.98711 5.98711 0 0 0 1.8272-.95123.78307.78307 0 0 0 .34571-.64868.945.945 0 0 0-.38892-.73517.93235.93235 0 0 0-.64874-.21606 1.118 1.118 0 0 0-.71326.23791 4.0428 4.0428 0 0 1-1.1571.58368 4.19822 4.19822 0 0 1-1.35138.23792 4.24219 4.24219 0 0 1-2.77838-.92988 3.80813 3.80813 0 0 1-1.37268-2.44335h8.21624a.9847.9847 0 0 0 .71332-.27049zm-8.9082-1.45911a3.88591 3.88591 0 0 1 1.24353-2.31372 3.73908 3.73908 0 0 1 2.56183-.86426 3.17349 3.17349 0 0 1 2.31372.86426 3.83382 3.83382 0 0 1 1.08087 2.31372z" />
</svg>
