<svg xmlns="http://www.w3.org/2000/svg" id="fuse-logo-type--25" viewBox="0 0 267 50">
	<path d="M118.74054 4.04279a2.74172 2.74172 0 0 0-2.01123.844 2.81846 2.81846 0 0 0 0 4.02039 2.81714 2.81714 0 0 0 4.02142 0 2.81589 2.81589 0 0 0 0-4.02039 2.73932 2.73932 0 0 0-2.01019-.844zM12.21863 16.84387a7.41744 7.41744 0 0 1 2.9187.53992 6.89257 6.89257 0 0 1 2.357 1.70819 2.17233 2.17233 0 0 0 1.68634.77783 1.68489 1.68489 0 0 0 .99445-.303 1.89561 1.89561 0 0 0 .95172-1.59942 1.61555 1.61555 0 0 0-.43268-1.12354 10.74436 10.74436 0 0 0-8.47552-3.89233 11.97545 11.97545 0 0 0-6.054 1.5343 10.7533 10.7533 0 0 0-4.173 4.2818A12.78948 12.78948 0 0 0 .5 24.97211a12.3236 12.3236 0 0 0 1.53485 6.12018 11.10029 11.10029 0 0 0 4.2594 4.30206 12.15136 12.15136 0 0 0 6.14044 1.5567 10.9854 10.9854 0 0 0 7.78363-2.89685 1.61363 1.61363 0 0 0 .51905-1.16724 2.017 2.017 0 0 0-.82154-1.5578 1.83556 1.83556 0 0 0-1.12408-.38836 2.70923 2.70923 0 0 0-1.59992.605 7.18575 7.18575 0 0 1-4.75714 1.514 7.69143 7.69143 0 0 1-4.00012-1.0382 7.18065 7.18065 0 0 1-2.72394-2.87549 8.78067 8.78067 0 0 1-.97314-4.174 8.31125 8.31125 0 0 1 2.0758-5.90253 7.05289 7.05289 0 0 1 5.40534-2.22571zM61.074 14.42181a10.87749 10.87749 0 0 0-5.751-1.47027 11.85982 11.85982 0 0 0-6.03272 1.5343 10.79825 10.79825 0 0 0-4.15106 4.2818 12.78893 12.78893 0 0 0-1.49164 6.20447 12.1039 12.1039 0 0 0 1.57807 6.1842 11.13027 11.13027 0 0 0 4.389 4.2594 13.20552 13.20552 0 0 0 10.53.80023 11.9706 11.9706 0 0 0 3.65387-1.90246 1.56681 1.56681 0 0 0 .692-1.29743 1.889 1.889 0 0 0-.77838-1.47027 1.86342 1.86342 0 0 0-1.29743-.43213 2.23626 2.23626 0 0 0-1.42712.47583 8.07022 8.07022 0 0 1-2.31317 1.16729 8.77814 8.77814 0 0 1-8.25952-1.38385 7.61451 7.61451 0 0 1-2.74585-4.88677h16.432a1.97034 1.97034 0 0 0 1.42707-.541 1.80729 1.80729 0 0 0 .56231-1.36145 13.5417 13.5417 0 0 0-1.29748-6.054 9.69155 9.69155 0 0 0-3.71895-4.10789zM47.71228 23.027a7.7661 7.7661 0 0 1 2.48657-4.6275 7.47863 7.47863 0 0 1 5.12421-1.7285 6.3476 6.3476 0 0 1 4.627 1.72852 7.67447 7.67447 0 0 1 2.16223 4.6275zM88.01044 14.5296a11.74368 11.74368 0 0 0-6.03266-1.57806 11.97226 11.97226 0 0 0-6.07538 1.57806 11.37 11.37 0 0 0-4.30261 4.32446 12.18655 12.18655 0 0 0-1.5567 6.11805 12.90839 12.90839 0 0 0 1.44843 6.12018 10.91334 10.91334 0 0 0 3.97821 4.30206 10.78847 10.78847 0 0 0 13.98913-2.3783v1.59943a2.20578 2.20578 0 1 0 4.41089 0v-9.64337a12.06087 12.06087 0 0 0-1.57861-6.118 11.63849 11.63849 0 0 0-4.2807-4.32451zm.62683 14.57276a7.63438 7.63438 0 0 1-10.57263 2.89685 7.62138 7.62138 0 0 1-2.76776-2.89685 8.38687 8.38687 0 0 1-1.0163-4.13025 8.512 8.512 0 0 1 1.0163-4.15052 7.59267 7.59267 0 0 1 2.76776-2.91925 7.52891 7.52891 0 0 1 10.57263 2.91925 8.66639 8.66639 0 0 1 .99444 4.15052 8.53855 8.53855 0 0 1-.99444 4.13025zM109.54266 32.45374h-1.47027a2.904 2.904 0 0 1-2.33454-1.16724 4.4401 4.4401 0 0 1-.95178-2.898V16.9303h3.67468a2.07941 2.07941 0 0 0 1.47028-.51856 1.69074 1.69074 0 0 0 .56335-1.29742 1.79113 1.79113 0 0 0-.56335-1.38391 2.07541 2.07541 0 0 0-1.47028-.51959h-3.67468V6.33575a2.16292 2.16292 0 1 0-4.32446 0v6.87507h-1.98883a2.07807 2.07807 0 0 0-1.47028.51959 1.79229 1.79229 0 0 0-.56231 1.38391 1.6917 1.6917 0 0 0 .56231 1.29742 2.08208 2.08208 0 0 0 1.47028.51856h1.98883v11.45825a9.09783 9.09783 0 0 0 .99548 4.2818 7.67572 7.67572 0 0 0 2.74426 3.00568 7.13361 7.13361 0 0 0 3.871 1.10217h.77887a2.74341 2.74341 0 0 0 1.83734-.605 1.94806 1.94806 0 0 0 .71277-1.55774 2.24517 2.24517 0 0 0-.53992-1.55567 1.7047 1.7047 0 0 0-1.31875-.60605zM118.74054 13.12439a2.1798 2.1798 0 0 0-1.57806.606 2.12079 2.12079 0 0 0-.62738 1.59942v19.24294a2.1433 2.1433 0 0 0 2.20544 2.20545 2.12008 2.12008 0 0 0 1.59943-.62628 2.18558 2.18558 0 0 0 .606-1.57917V15.32983a2.0823 2.0823 0 0 0-2.20544-2.20544zM147.661 13.42743a2.196 2.196 0 0 0-.99439-.21661 2.12125 2.12125 0 0 0-1.0595.28064 1.846 1.846 0 0 0-.75647.80023l-7.43793 16.21588-7.52429-16.21588a1.88806 1.88806 0 0 0-.73517-.80023 1.93492 1.93492 0 0 0-.99445-.28064 1.83772 1.83772 0 0 0-.908.21661 1.91 1.91 0 0 0-1.21106 1.77331 1.71518 1.71518 0 0 0 .17286.77784l9.16748 19.32934a2.81 2.81 0 0 0 .86529 1.10218 2.18846 2.18846 0 0 0 3.19989-1.10218l9.16748-19.32934a1.8407 1.8407 0 0 0 .21552-.8216 1.80378 1.80378 0 0 0-.30194-1.01684 2.03556 2.03556 0 0 0-.86532-.71271zM173.18256 25.94519a1.80729 1.80729 0 0 0 .56231-1.36145 13.54183 13.54183 0 0 0-1.29748-6.054 9.68723 9.68723 0 0 0-3.71839-4.10791 10.88005 10.88005 0 0 0-5.75207-1.47027 11.85429 11.85429 0 0 0-6.03162 1.5343 10.79594 10.79594 0 0 0-4.15161 4.2818 12.78893 12.78893 0 0 0-1.49164 6.20447 12.09905 12.09905 0 0 0 1.57807 6.1842 11.12815 11.12815 0 0 0 4.38952 4.2594 13.203 13.203 0 0 0 10.52893.80023 11.97385 11.97385 0 0 0 3.65442-1.90246 1.56624 1.56624 0 0 0 .69141-1.29743 1.88993 1.88993 0 0 0-.77783-1.47027 1.86442 1.86442 0 0 0-1.29749-.43213 2.23576 2.23576 0 0 0-1.42651.47583 8.08563 8.08563 0 0 1-2.31427 1.16729 8.39427 8.39427 0 0 1-2.7027.4759 8.48465 8.48465 0 0 1-5.55676-1.85975 7.616 7.616 0 0 1-2.74536-4.88677H171.756a1.96921 1.96921 0 0 0 1.42656-.54098zM155.36615 23.027a7.77251 7.77251 0 0 1 2.48712-4.6275 7.47813 7.47813 0 0 1 5.12366-1.72852 6.34692 6.34692 0 0 1 4.62744 1.72852 7.66754 7.66754 0 0 1 2.16174 4.6275zM41.33 13.52148a7.65322 7.65322 0 0 0-3.60834-.65643 9.694 9.694 0 0 0-4.06488.86542 9.12315 9.12315 0 0 0-3.19971 2.377v-.82141a1.91131 1.91131 0 0 0-2.16217-2.16156 1.95937 1.95937 0 0 0-2.16217 2.16156v19.32936a2.14806 2.14806 0 0 0 .56214 1.62182 2.21489 2.21489 0 0 0 1.6.541 2.14969 2.14969 0 0 0 1.62164-.56232 2.21554 2.21554 0 0 0 .54053-1.60046c0-1.69074-.01465-9.4494-.01465-9.4494.01667-.26575.02649-.53156.059-.79755a8.27372 8.27372 0 0 1 3.55616-6.16968 8.15842 8.15842 0 0 1 3.43664-1.17694 10.23685 10.23685 0 0 1 1.78022-.0249c.5498.03351 1.07708.23279 1.631.21918a1.83853 1.83853 0 0 0 1.378-2.85334 2.84185 2.84185 0 0 0-.95341-.84135z" />
	<path d="M189.03119 3.00519a10.038 10.038 0 0 0-5.08093 1.27612 8.82191 8.82191 0 0 0-3.45917 3.5893 11.28687 11.28687 0 0 0-1.23236 5.384v21.31814a2.12127 2.12127 0 0 0 .62738 1.60047 2.07182 2.07182 0 0 0 1.49164.605 2.27933 2.27933 0 0 0 1.68585-.605 2.16413 2.16413 0 0 0 .606-1.60047V17.70813h4.41089a2.08476 2.08476 0 0 0 1.47027-.51855 1.69621 1.69621 0 0 0 .56128-1.29743 1.797 1.797 0 0 0-.56128-1.38391 2.0807 2.0807 0 0 0-1.47027-.51959h-4.41089v-1.1673a6.01725 6.01725 0 0 1 1.47027-4.238 5.03318 5.03318 0 0 1 3.8913-1.59936 2.27519 2.27519 0 0 0 1.5791-.56232 1.833 1.833 0 0 0 .62634-1.42761 1.83394 1.83394 0 0 0-.62634-1.42658 2.28056 2.28056 0 0 0-1.57908-.56229zM213.12427 13.08173a2.17881 2.17881 0 0 0-1.57807.605 2.12224 2.12224 0 0 0-.62738 1.59936v12.19554a4.92438 4.92438 0 0 1-.84289 2.81042 5.86307 5.86307 0 0 1-2.33563 1.98883 7.37139 7.37139 0 0 1-3.30762.73517 6.93415 6.93415 0 0 1-4.99451-1.79468 6.98267 6.98267 0 0 1-1.8811-5.29754V15.28607a2.20577 2.20577 0 1 0-4.41089 0v10.63776a12.459 12.459 0 0 0 1.34015 5.99005 9.12953 9.12953 0 0 0 3.71948 3.78351 11.01518 11.01518 0 0 0 5.36157 1.29742 10.87527 10.87527 0 0 0 4.06519-.75757 9.5883 9.5883 0 0 0 3.28625-2.14032v.47583a2.1433 2.1433 0 0 0 2.20545 2.20545 2.12006 2.12006 0 0 0 1.59942-.62628 2.1813 2.1813 0 0 0 .606-1.57917V15.28607a2.08077 2.08077 0 0 0-2.20544-2.20434zM237.79456 25.4917q-1.967-1.68521-6.68036-2.63751a20.82072 20.82072 0 0 1-3.50287-.97309 3.84768 3.84768 0 0 1-1.64313-1.08087 2.36127 2.36127 0 0 1-.43323-1.449 2.066 2.066 0 0 1 1.27613-1.881 6.9908 6.9908 0 0 1 3.26495-.6701 9.23917 9.23917 0 0 1 2.94055.41083 6.47316 6.47316 0 0 1 2.29187 1.40521 2.95533 2.95533 0 0 0 2.03259.82153 2.00332 2.00332 0 0 0 1.21106-.3457 1.733 1.733 0 0 0 .73511-1.34119 2.20206 2.20206 0 0 0-.56223-1.38281 8.6083 8.6083 0 0 0-3.52424-2.50842 13.25514 13.25514 0 0 0-5.03826-.908 12.625 12.625 0 0 0-4.32447.73517 7.62329 7.62329 0 0 0-3.28631 2.20544 5.33833 5.33833 0 0 0-1.25367 3.5893q0 5.232 8.30213 6.83184a13.19683 13.19683 0 0 1 4.54108 1.49268 2.61008 2.61008 0 0 1 1.34008 2.22577 2.48908 2.48908 0 0 1-1.36248 2.20648 7.43751 7.43751 0 0 1-3.82624.82159 9.19663 9.19663 0 0 1-3.50287-.6701 6.667 6.667 0 0 1-2.46472-1.5791 2.31862 2.31862 0 0 0-1.64313-.77887 2.62359 2.62359 0 0 0-1.514.606 2.01122 2.01122 0 0 0-.86426 1.68585 1.83015 1.83015 0 0 0 .56122 1.34118 10.61869 10.61869 0 0 0 4.06518 2.3783 16.61866 16.61866 0 0 0 5.53546.908 12.37612 12.37612 0 0 0 5.03724-.92932 7.20083 7.20083 0 0 0 3.17852-2.55219 6.36514 6.36514 0 0 0 1.08087-3.61065 5.48673 5.48673 0 0 0-1.96757-4.36725zM265.93768 25.94519a1.8073 1.8073 0 0 0 .56232-1.36145 13.54263 13.54263 0 0 0-1.29742-6.054 9.68775 9.68775 0 0 0-3.71845-4.10791 10.8801 10.8801 0 0 0-5.75207-1.47027 11.85429 11.85429 0 0 0-6.03162 1.5343 10.7962 10.7962 0 0 0-4.15161 4.2818 12.78881 12.78881 0 0 0-1.49164 6.20447 12.099 12.099 0 0 0 1.57806 6.1842 11.12863 11.12863 0 0 0 4.38953 4.2594 13.203 13.203 0 0 0 10.52893.80023 11.97327 11.97327 0 0 0 3.65442-1.90246 1.56624 1.56624 0 0 0 .69141-1.29743 1.88991 1.88991 0 0 0-.77784-1.47027 1.86413 1.86413 0 0 0-1.29742-.43213 2.23581 2.23581 0 0 0-1.42657.47583 8.08418 8.08418 0 0 1-2.31427 1.16729 8.39425 8.39425 0 0 1-2.70264.4759 8.48473 8.48473 0 0 1-5.55683-1.85975 7.61607 7.61607 0 0 1-2.74536-4.88677h16.43256a1.969 1.969 0 0 0 1.42651-.54098zm-17.8164-2.91819a7.77226 7.77226 0 0 1 2.48718-4.6275 7.47787 7.47787 0 0 1 5.1236-1.72852 6.34716 6.34716 0 0 1 4.6275 1.72852 7.66788 7.66788 0 0 1 2.16168 4.6275z" />
</svg>
