<svg xmlns="http://www.w3.org/2000/svg" viewBox="0 0 200.25 37.5">
    <path d="M9.392 12.79315a5.5502 5.5502 0 0 1 2.18353.40393 5.15739 5.15739 0 0 1 1.76331 1.278 1.625 1.625 0 0 0 1.26159.58191 1.26036 1.26036 0 0 0 .744-.22669 1.41817 1.41817 0 0 0 .712-1.19653 1.20879 1.20879 0 0 0-.32367-.84058A8.03815 8.03815 0 0 0 9.392 9.88123a8.95926 8.95926 0 0 0-4.52918 1.14788A8.04442 8.04442 0 0 0 1.741 14.23236a9.568 9.568 0 0 0-1.116 4.64172 9.21965 9.21965 0 0 0 1.14825 4.57862 8.30416 8.30416 0 0 0 3.18653 3.21844 9.09078 9.09078 0 0 0 4.59381 1.16461 8.21831 8.21831 0 0 0 5.82306-2.16717 1.20708 1.20708 0 0 0 .38836-.87323 1.509 1.509 0 0 0-.61462-1.16541 1.37338 1.37338 0 0 0-.84094-.29058 2.02711 2.02711 0 0 0-1.197.45257 5.37553 5.37553 0 0 1-3.5589 1.13269A5.75387 5.75387 0 0 1 6.561 24.148a5.37275 5.37275 0 0 1-2.03791-2.15118 6.56966 6.56966 0 0 1-.728-3.12269 6.21742 6.21742 0 0 1 1.553-4.41577A5.27622 5.27622 0 0 1 9.392 12.79315zM45.94165 10.9812a8.137 8.137 0 0 0-4.30243-1.1 8.87246 8.87246 0 0 0-4.51322 1.14791 8.07825 8.07825 0 0 0-3.10547 3.20325 9.568 9.568 0 0 0-1.116 4.64172 9.05524 9.05524 0 0 0 1.18061 4.62653 8.32653 8.32653 0 0 0 3.2835 3.18652 9.87945 9.87945 0 0 0 7.87769.5987A8.95582 8.95582 0 0 0 47.98 25.86255a1.17224 1.17224 0 0 0 .51764-.97064 1.41324 1.41324 0 0 0-.58234-1.1 1.39411 1.39411 0 0 0-.97064-.32324 1.67271 1.67271 0 0 0-1.06763.356 6.03843 6.03843 0 0 1-1.73053.87323 6.56712 6.56712 0 0 1-6.17907-1.03528 5.69634 5.69634 0 0 1-2.05426-3.65589h12.29307a1.47387 1.47387 0 0 0 1.06762-.40472 1.35182 1.35182 0 0 0 .42066-1.01855 10.13083 10.13083 0 0 0-.97064-4.52912 7.25033 7.25033 0 0 0-2.78223-3.07314zm-9.99615 6.43768a5.81 5.81 0 0 1 1.86023-3.46188 5.5949 5.5949 0 0 1 3.83349-1.29309 4.74887 4.74887 0 0 1 3.46155 1.29309 5.74158 5.74158 0 0 1 1.61761 3.46191zM66.09332 11.06183a8.78579 8.78579 0 0 0-4.51318-1.1806 8.9571 8.9571 0 0 0-4.54511 1.1806 8.5061 8.5061 0 0 0-3.21881 3.23523 9.11671 9.11671 0 0 0-1.16461 4.577 9.65744 9.65744 0 0 0 1.08356 4.57862 8.16479 8.16479 0 0 0 2.97619 3.21844 8.07113 8.07113 0 0 0 10.46558-1.77923v1.19653a1.65019 1.65019 0 1 0 3.29987 0v-7.21434a9.023 9.023 0 0 0-1.181-4.577 8.70758 8.70758 0 0 0-3.20249-3.23525zm.469 10.90216a5.71166 5.71166 0 0 1-7.90967 2.16724 5.702 5.702 0 0 1-2.07056-2.16723 6.27436 6.27436 0 0 1-.76031-3.08991 6.36815 6.36815 0 0 1 .76031-3.1051 5.6807 5.6807 0 0 1 2.07056-2.184 5.63261 5.63261 0 0 1 7.90967 2.184 6.48413 6.48413 0 0 1 .74395 3.1051 6.38826 6.38826 0 0 1-.74395 3.08991zM82.202 24.47125h-1.1a2.17249 2.17249 0 0 1-1.74652-.87329 3.32164 3.32164 0 0 1-.712-2.168v-8.57211h2.74909a1.55591 1.55591 0 0 0 1.1-.38794 1.26514 1.26514 0 0 0 .42145-.97064 1.34026 1.34026 0 0 0-.42145-1.03534 1.55284 1.55284 0 0 0-1.1-.38873h-2.74902V4.93182a1.61813 1.61813 0 1 0-3.23522 0v5.14338h-1.48792a1.55454 1.55454 0 0 0-1.09991.38873 1.341 1.341 0 0 0-.42072 1.03534 1.26576 1.26576 0 0 0 .42072.97064 1.55762 1.55762 0 0 0 1.09991.38794h1.48792V21.43a6.80593 6.80593 0 0 0 .74475 3.20331 5.74125 5.74125 0 0 0 2.053 2.2486 5.33656 5.33656 0 0 0 2.89593.82458h.58276a2.05232 2.05232 0 0 0 1.37452-.45263 1.45734 1.45734 0 0 0 .5332-1.16541 1.67988 1.67988 0 0 0-.40387-1.16382 1.27546 1.27546 0 0 0-.98662-.45338zM89.08319 3.21643a2.05113 2.05113 0 0 0-1.5047.63141 2.10845 2.10845 0 0 0 0 3.00769 2.1076 2.1076 0 0 0 3.00855 0 2.1066 2.1066 0 0 0 0-3.00769 2.04933 2.04933 0 0 0-1.50385-.63141zM89.08319 10.01056a1.63067 1.63067 0 0 0-1.1806.45337 1.58648 1.58648 0 0 0-.46936 1.19659v14.396a1.6035 1.6035 0 0 0 1.65 1.65 1.58591 1.58591 0 0 0 1.19653-.46856 1.63515 1.63515 0 0 0 .45337-1.1814v-14.396a1.55781 1.55781 0 0 0-1.6499-1.65zM110.71912 10.23724a1.64347 1.64347 0 0 0-.744-.162 1.58711 1.58711 0 0 0-.7926.21 1.38135 1.38135 0 0 0-.566.59863l-5.56446 12.13147L97.423 10.88379a1.4122 1.4122 0 0 0-.55-.59863 1.44745 1.44745 0 0 0-.7439-.21 1.37532 1.37532 0 0 0-.67932.162 1.429 1.429 0 0 0-.906 1.32666 1.28359 1.28359 0 0 0 .12934.58191l6.85833 14.4607a2.1019 2.1019 0 0 0 .6474.82458 1.63721 1.63721 0 0 0 2.39386-.82458l6.8584-14.4607a1.3772 1.3772 0 0 0 .1612-.61462 1.34922 1.34922 0 0 0-.22589-.76074 1.5225 1.5225 0 0 0-.6473-.53313zM129.81232 19.602a1.35185 1.35185 0 0 0 .42065-1.01855 10.13083 10.13083 0 0 0-.97064-4.52912 7.24747 7.24747 0 0 0-2.7818-3.07318 8.13907 8.13907 0 0 0-4.30322-1.1 8.86838 8.86838 0 0 0-4.51239 1.14788 8.0765 8.0765 0 0 0-3.1059 3.20325 9.568 9.568 0 0 0-1.116 4.64172 9.05168 9.05168 0 0 0 1.18061 4.62653 8.3252 8.3252 0 0 0 3.28387 3.18652 9.87773 9.87773 0 0 0 7.877.5987 8.95765 8.95765 0 0 0 2.73389-1.42328 1.17171 1.17171 0 0 0 .51727-.97064 1.414 1.414 0 0 0-.5819-1.1 1.39479 1.39479 0 0 0-.97065-.32324 1.67212 1.67212 0 0 0-1.0672.356 6.0498 6.0498 0 0 1-1.73138.87323 6.28018 6.28018 0 0 1-2.02191.356 6.34756 6.34756 0 0 1-4.15717-1.3913 5.69771 5.69771 0 0 1-2.05383-3.65589h12.29352a1.47288 1.47288 0 0 0 1.06718-.40463zm-13.3288-2.18317a5.81477 5.81477 0 0 1 1.86066-3.46191 5.59459 5.59459 0 0 1 3.83313-1.29309 4.74856 4.74856 0 0 1 3.46191 1.29309 5.73679 5.73679 0 0 1 1.61719 3.46191zM31.17078 10.30762a5.7256 5.7256 0 0 0-2.69947-.49109 7.25291 7.25291 0 0 0-3.041.6474 6.82567 6.82567 0 0 0-2.3938 1.77838v-.61456a1.42985 1.42985 0 0 0-1.61751-1.61707 1.4658 1.4658 0 0 0-1.61756 1.61707v14.46069a1.607 1.607 0 0 0 .42053 1.21332 1.6569 1.6569 0 0 0 1.197.40472 1.60838 1.60838 0 0 0 1.21319-.42071 1.65743 1.65743 0 0 0 .40436-1.19733c0-1.26483-.011-7.06927-.011-7.06927.01251-.19886.01984-.39771.04419-.59668a6.18966 6.18966 0 0 1 2.66046-4.61567 6.10373 6.10373 0 0 1 2.571-.88049 7.66133 7.66133 0 0 1 1.33185-.01862c.41131.02509.80572.17414 1.22015.16395A1.37542 1.37542 0 0 0 31.884 10.937a2.12578 2.12578 0 0 0-.71322-.62938z" />
    <path d="M141.669 2.44019a7.51 7.51 0 0 0-3.80115.95465A6.60006 6.60006 0 0 0 135.28 6.08008a8.44434 8.44434 0 0 0-.922 4.02792v15.94852a1.58691 1.58691 0 0 0 .46936 1.19733 1.55 1.55 0 0 0 1.11591.45263 1.7052 1.7052 0 0 0 1.26123-.45263 1.61908 1.61908 0 0 0 .45337-1.19733V13.43976h3.29986a1.55979 1.55979 0 0 0 1.1-.38794 1.26917 1.26917 0 0 0 .41986-.97064 1.34462 1.34462 0 0 0-.41986-1.03534 1.55667 1.55667 0 0 0-1.1-.38874h-3.29983v-.87323a4.50149 4.50149 0 0 1 1.1-3.17059 3.76543 3.76543 0 0 1 2.9111-1.19653 1.70256 1.70256 0 0 0 1.18139-.42066 1.37153 1.37153 0 0 0 .46857-1.068 1.37208 1.37208 0 0 0-.46857-1.0672 1.706 1.706 0 0 0-1.18139-.4207zM159.69354 9.97864a1.6302 1.6302 0 0 0-1.1806.45257 1.58789 1.58789 0 0 0-.46936 1.19654v9.12378a3.68429 3.68429 0 0 1-.63056 2.10253 4.38643 4.38643 0 0 1-1.74731 1.48786 5.51531 5.51531 0 0 1-2.47455.55 5.188 5.188 0 0 1-3.73651-1.34259 5.22393 5.22393 0 0 1-1.40723-3.9632v-7.95838a1.6502 1.6502 0 1 0-3.29992 0v7.95837a9.32052 9.32052 0 0 0 1.00262 4.4812 6.82986 6.82986 0 0 0 2.78259 2.83057 8.24111 8.24111 0 0 0 4.01111.97064 8.13588 8.13588 0 0 0 3.04126-.56677 7.17248 7.17248 0 0 0 2.4585-1.60126v.356a1.6035 1.6035 0 0 0 1.65 1.65 1.58577 1.58577 0 0 0 1.19654-.46856 1.63169 1.63169 0 0 0 .45343-1.1814V11.62775a1.55671 1.55671 0 0 0-1.65-1.64911zM173.15216 17.28961a15.56554 15.56554 0 0 1-2.62054-.728 2.87816 2.87816 0 0 1-1.22931-.80859 1.76665 1.76665 0 0 1-.3241-1.084 1.54575 1.54575 0 0 1 .95471-1.40729 5.23083 5.23083 0 0 1 2.44257-.50128 6.91371 6.91371 0 0 1 2.19995.30731A4.84326 4.84326 0 0 1 176.29 14.119a2.211 2.211 0 0 0 1.52063.61462 1.49878 1.49878 0 0 0 .906-.2586 1.29649 1.29649 0 0 0 .55-1.00336 1.64723 1.64723 0 0 0-.42065-1.03449 6.43944 6.43944 0 0 0-2.63654-1.87664 9.91693 9.91693 0 0 0-3.76929-.67932 9.44482 9.44482 0 0 0-3.23516.55 5.703 5.703 0 0 0-2.45856 1.65 3.9936 3.9936 0 0 0-.93793 2.68524q0 3.91405 6.211 5.111a9.87211 9.87211 0 0 1 3.39728 1.11676 1.95262 1.95262 0 0 1 1.00256 1.6651A1.86206 1.86206 0 0 1 175.4 24.31a5.564 5.564 0 0 1-2.86242.61462 6.88063 6.88063 0 0 1-2.62061-.50128 4.98723 4.98723 0 0 1-1.84387-1.18134 1.73471 1.73471 0 0 0-1.22931-.5827 1.96292 1.96292 0 0 0-1.13269.45337 1.50473 1.50473 0 0 0-.64655 1.26117 1.36931 1.36931 0 0 0 .41987 1.00342 7.94273 7.94273 0 0 0 3.04125 1.77923 12.43311 12.43311 0 0 0 4.14124.67926 9.25855 9.25855 0 0 0 3.76843-.69525 5.38629 5.38629 0 0 0 2.37787-1.90936 4.76161 4.76161 0 0 0 .80866-2.70117 4.10466 4.10466 0 0 0-1.47193-3.26715 11.29666 11.29666 0 0 0-4.99778-1.97321zM199.20435 19.602a1.35207 1.35207 0 0 0 .42065-1.01855 10.13164 10.13164 0 0 0-.97064-4.52912 7.24747 7.24747 0 0 0-2.7818-3.07318 8.1393 8.1393 0 0 0-4.30329-1.1 8.86843 8.86843 0 0 0-4.51239 1.14788 8.07688 8.07688 0 0 0-3.10589 3.20325 9.56794 9.56794 0 0 0-1.11591 4.64172 9.05163 9.05163 0 0 0 1.18054 4.62653 8.32571 8.32571 0 0 0 3.28394 3.18652 9.87758 9.87758 0 0 0 7.87689.5987 8.958 8.958 0 0 0 2.734-1.42328 1.17171 1.17171 0 0 0 .51727-.97064 1.414 1.414 0 0 0-.58191-1.1 1.39485 1.39485 0 0 0-.97064-.32324 1.6724 1.6724 0 0 0-1.06726.356 6.04953 6.04953 0 0 1-1.73132.87323 6.28018 6.28018 0 0 1-2.02191.356 6.34745 6.34745 0 0 1-4.15717-1.3913 5.698 5.698 0 0 1-2.05389-3.65589h12.29351a1.473 1.473 0 0 0 1.06722-.40463zm-13.3288-2.18317a5.81472 5.81472 0 0 1 1.86066-3.46191 5.59451 5.59451 0 0 1 3.83306-1.29309 4.74838 4.74838 0 0 1 3.46192 1.29309 5.73651 5.73651 0 0 1 1.61725 3.46191z" />
</svg>
